<svg width="24" height="24" viewBox="0 0 24 24" fill="none" xmlns="http://www.w3.org/2000/svg">
<path d="M15.75 10.5C15.75 11.5384 15.4421 12.5534 14.8652 13.4167C14.2883 14.2801 13.4684 14.953 12.5091 15.3504C11.5498 15.7477 10.4942 15.8517 9.47577 15.6491C8.45737 15.4466 7.52191 14.9465 6.78769 14.2123C6.05346 13.4781 5.55345 12.5426 5.35088 11.5242C5.1483 10.5058 5.25227 9.45023 5.64963 8.49091C6.04699 7.5316 6.7199 6.71166 7.58325 6.13479C8.44661 5.55791 9.46165 5.25 10.5 5.25C11.8924 5.25 13.2277 5.80313 14.2123 6.78769C15.1969 7.77226 15.75 9.10761 15.75 10.5ZM21.5306 21.5306C21.461 21.6004 21.3783 21.6557 21.2872 21.6934C21.1962 21.7312 21.0986 21.7506 21 21.7506C20.9014 21.7506 20.8038 21.7312 20.7128 21.6934C20.6217 21.6557 20.539 21.6004 20.4694 21.5306L15.7762 16.8366C14.1442 18.1944 12.0515 18.8707 9.93343 18.7249C7.8154 18.5791 5.83511 17.6224 4.40446 16.0538C2.97381 14.4852 2.20294 12.4254 2.25219 10.303C2.30145 8.1805 3.16704 6.15872 4.66892 4.65816C6.1708 3.15761 8.19334 2.29381 10.3159 2.24643C12.4384 2.19905 14.4974 2.97174 16.0648 4.40377C17.6321 5.83581 18.5871 7.81695 18.731 9.9351C18.8749 12.0533 18.1967 14.1454 16.8375 15.7763L21.5306 20.4694C21.6004 20.539 21.6557 20.6217 21.6934 20.7128C21.7312 20.8038 21.7506 20.9014 21.7506 21C21.7506 21.0986 21.7312 21.1962 21.6934 21.2872C21.6557 21.3783 21.6004 21.461 21.5306 21.5306ZM10.5 17.25C11.835 17.25 13.1401 16.8541 14.2501 16.1124C15.3601 15.3707 16.2253 14.3165 16.7362 13.0831C17.2471 11.8497 17.3807 10.4925 17.1203 9.18314C16.8598 7.87377 16.217 6.67103 15.273 5.72703C14.329 4.78303 13.1262 4.14015 11.8169 3.8797C10.5075 3.61925 9.15029 3.75292 7.91689 4.26381C6.68348 4.77471 5.62928 5.63987 4.88758 6.7499C4.14588 7.85993 3.75 9.16498 3.75 10.5C3.75198 12.2896 4.46378 14.0053 5.72922 15.2708C6.99466 16.5362 8.7104 17.248 10.5 17.25Z" fill="#808080"/>
</svg>
